<svg width="127" height="130" viewBox="0 0 127 130" fill="none" xmlns="http://www.w3.org/2000/svg">
<g clip-path="url(#clip0_44_2)">
<path d="M62.9803 129.755C57.9202 129.855 52.1655 128.855 46.6092 126.655C41.3507 124.555 36.1913 121.955 31.0319 119.455C29.246 118.555 27.6585 117.355 26.071 116.255C19.0264 111.155 14.4624 104.455 12.478 95.8547C10.2952 86.0547 10.196 76.3547 13.1725 66.6547C15.1569 60.2547 18.4311 54.6547 22.4991 49.5547C23.5905 48.2547 25.178 47.2547 26.4678 46.1547C27.2616 45.4547 28.2538 44.7547 28.8491 43.8547C36.0921 32.9547 46.2124 25.8547 58.2178 21.2547C68.4374 17.4547 78.8553 15.7547 89.7694 16.0547C115.268 16.7547 128.167 40.2547 125.885 58.4547C125.19 63.9547 124.297 69.5547 123.007 74.9547C120.825 84.5547 116.558 93.2547 110.704 101.255C106.339 107.255 101.279 112.655 95.6233 117.555C86.4952 125.455 76.0772 129.855 62.9803 129.755Z" fill="black" fill-opacity="0.12"/>
<path d="M115.064 58.221C115.064 63.321 114.667 68.321 113.377 73.221C112.286 77.521 110.698 81.621 108.119 85.221C100.578 95.721 91.5488 104.521 79.6426 109.921C69.9192 114.321 59.7988 116.921 49.0832 117.421C40.0543 117.821 32.0176 115.021 25.1715 109.021C19.6152 104.221 14.7535 98.721 11.5785 91.921C10.7848 90.221 9.59418 88.621 8.70121 86.921C4.4348 78.621 2.45043 69.721 1.06136 60.621C0.0691778 54.321 -0.426915 47.921 0.466052 41.521C2.35121 28.021 9.49496 17.821 20.3098 10.021C30.7277 2.62096 42.5348 -0.279038 55.334 0.0209617C61.8824 0.220962 68.2324 1.32096 74.384 3.72096C79.5434 5.72096 84.7027 7.92096 89.6637 10.321C97.3035 13.921 103.059 19.521 107.126 27.021C112.584 36.721 115.064 47.121 115.064 58.221ZM104.348 58.421C104.051 48.421 101.967 40.421 97.502 32.221C94.6246 26.921 90.6559 23.021 85.2981 20.521C79.7418 17.921 74.1856 15.321 68.3317 13.521C54.2426 9.22096 40.4512 10.221 27.8504 18.421C16.6387 25.721 10.3879 36.021 11.0824 49.721C11.5785 58.721 12.1738 67.721 16.6387 75.921C18.127 78.621 19.1192 81.621 20.3098 84.521C22.7902 91.021 27.2551 96.121 32.3152 100.621C37.0777 104.821 42.634 106.721 48.984 106.321C50.4723 106.221 51.9606 106.121 53.4488 105.921C71.8043 103.621 86.9848 95.621 97.9981 80.321C100.38 76.921 102.265 73.321 102.959 69.321C103.555 65.721 103.852 62.021 104.348 58.421Z" fill="#F7D046"/>
<path d="M33.7043 61.5212C33.8035 53.5212 35.7879 46.2212 41.2449 40.1212C43.5269 37.6212 46.1066 35.5212 49.1824 34.2212C51.9605 33.0212 54.8379 32.7212 57.8144 33.5212C59.3027 33.9212 60.8902 33.9212 62.4777 34.0212C66.3472 34.4212 69.9191 35.6212 72.9949 38.0212C78.8488 42.5212 81.0316 48.7212 80.6347 55.9212C79.9402 68.0212 70.9113 80.1212 59.5011 83.9212C53.0519 86.1212 46.9004 84.9212 41.741 80.3212C36.0855 75.3212 33.6051 69.0212 33.7043 61.5212ZM44.7176 61.4212C44.6183 65.3212 45.7097 68.6212 48.4879 71.4212C50.8691 73.7212 53.7465 74.4212 56.8222 73.0212C63.7676 69.7212 68.1332 64.4212 69.5222 56.7212C70.9113 49.1212 66.248 44.2212 58.6082 45.0212C57.7152 45.1212 56.723 45.5212 55.8301 45.7212C54.6394 45.9212 53.4488 46.3212 52.3574 46.2212C50.9683 46.1212 50.1746 46.7212 49.2816 47.6212C45.809 51.6212 44.916 56.4212 44.7176 61.4212Z" fill="#EA552B"/>
</g>
<defs>
<clipPath id="clip0_44_2">
<rect width="127" height="130" fill="white"/>
</clipPath>
</defs>
</svg>
